# xmcd
#
# Track frame offsets: 
#        150
#        10632
#        24727
#        37095
#        48157
#        58522
#        70880
#        81297
#        93050
#        103097
#
# Disc length: 1525 seconds
#
# Revision: 0
# Processed by: cddbd v1.5.2PL0 Copyright (c) Steve Scherf et al.
# Submitted via: ExactAudioCopy v0.99pb4
#
DISCID=7605f30a
DTITLE=The Louvin Brothers - Country Heart and Soul
DYEAR=2003
DGENRE=Country
TTITLE0=Here Today And Gone Tomorrow
TTITLE1=Too Late
TTITLE2=Nobody's Darlin' But Mine
TTITLE3=Tennessee Waltz
TTITLE4=In The Middle of Nowhere
TTITLE5=Take Me Back Into Your Heart
TTITLE6=I Cried After You Left
TTITLE7=Hoping That You're Hoping
TTITLE8=We Could
TTITLE9=Don't Laugh
EXTD=
EXTT0=
EXTT1=
EXTT2=
EXTT3=
EXTT4=
EXTT5=
EXTT6=
EXTT7=
EXTT8=
EXTT9=
PLAYORDER=
